<svg width="16" height="14" viewBox="0 0 16 14" fill="none" xmlns="http://www.w3.org/2000/svg">
<path d="M11.1256 8.61191H11.1323M13 1H3.4C2.55992 1 2.13988 1 1.81902 1.16348C1.53677 1.3073 1.3073 1.53677 1.16349 1.81901C1 2.13988 1 2.55992 1 3.4V10.6C1 11.4401 1 11.8601 1.16349 12.181C1.3073 12.4632 1.53677 12.6927 1.81902 12.8365C2.13988 13 2.55992 13 3.4 13H12.1C12.9401 13 13.3602 13 13.681 12.8365C13.9632 12.6927 14.1927 12.4632 14.3365 12.181C14.5 11.8601 14.5 11.4401 14.5 10.6V6.40001C14.5 5.55994 14.5 5.13988 14.3365 4.81902C14.1927 4.53677 13.9632 4.3073 13.681 4.16348C13.3602 4 12.9401 4 12.1 4H4M11.4631 8.61191C11.4631 8.79829 11.312 8.94941 11.1256 8.94941C10.9392 8.94941 10.7881 8.79829 10.7881 8.61191C10.7881 8.42554 10.9392 8.27441 11.1256 8.27441C11.312 8.27441 11.4631 8.42554 11.4631 8.61191Z" stroke="white" stroke-width="2" stroke-linecap="round" stroke-linejoin="round"/>
</svg>
