<svg width="41" height="58" viewBox="0 0 41 58" fill="none" xmlns="http://www.w3.org/2000/svg">
<path d="M36.614 28.8375C34.5166 27.0793 31.8501 26.1461 29.114 26.2125H11.5265C10.7246 26.2327 9.92691 26.091 9.18109 25.7957C8.43527 25.5004 7.75671 25.0577 7.18602 24.494C6.61532 23.9303 6.16424 23.2572 5.85976 22.5151C5.55529 21.773 5.40368 20.9771 5.41403 20.175C5.39448 19.8628 5.39448 19.5497 5.41403 19.2375C5.65049 17.8043 6.40202 16.5067 7.5275 15.5883C8.65298 14.67 10.075 14.1941 11.5265 14.25H28.8515C30.2648 14.2488 31.6325 14.7495 32.7108 15.663C33.7891 16.5765 34.5079 17.8433 34.739 19.2375H40.364C40.1286 16.346 38.8136 13.649 36.6805 11.6827C34.5475 9.71643 31.7526 8.62485 28.8515 8.625H22.9265V0H18.239V8.625H11.5265C8.62546 8.62485 5.83058 9.71643 3.69753 11.6827C1.56449 13.649 0.249506 16.346 0.0140302 19.2375C-0.00467673 19.5497 -0.00467673 19.8628 0.0140302 20.175C0.0140302 21.6868 0.31181 23.1839 0.890367 24.5806C1.46892 25.9774 2.31693 27.2465 3.38596 28.3156C5.54498 30.4746 8.47323 31.6875 11.5265 31.6875H29.3015C30.0971 31.6675 30.8886 31.8069 31.6294 32.0976C32.3702 32.3882 33.0453 32.8243 33.615 33.3799C34.1846 33.9356 34.6373 34.5997 34.9462 35.3331C35.2552 36.0664 35.4143 36.8542 35.414 37.65C35.453 38.0741 35.453 38.5009 35.414 38.925C35.1163 40.2444 34.3788 41.4235 33.3225 42.2684C32.2663 43.1134 30.9542 43.5741 29.6015 43.575H11.9765C10.6239 43.5741 9.31176 43.1134 8.25554 42.2684C7.19931 41.4235 6.46178 40.2444 6.16403 38.925H0.501531C0.823798 41.7426 2.17141 44.3431 4.28759 46.2311C6.40377 48.119 9.14058 49.1625 11.9765 49.1625H18.239V57.675H22.9265V49.1625H29.3015C32.1375 49.1625 34.8743 48.119 36.9905 46.2311C39.1066 44.3431 40.4543 41.7426 40.7765 38.925V37.65C40.772 35.9656 40.3967 34.3029 39.6774 32.7799C38.958 31.2569 37.9121 29.9109 36.614 28.8375Z" fill="white"/>
</svg>
