<svg width="37" height="37" viewBox="0 0 37 37" fill="none" xmlns="http://www.w3.org/2000/svg">
<circle cx="18.5" cy="18.5" r="18.5" fill="#6D0B92"/>
<path fill-rule="evenodd" clip-rule="evenodd" d="M24.0782 25.381H12.9224C12.322 25.381 11.8786 24.7854 12.1051 24.2377C13.1558 21.705 15.6244 20.254 18.4999 20.254C21.3762 20.254 23.8448 21.705 24.8955 24.2377C25.122 24.7854 24.6786 25.381 24.0782 25.381ZM15.0292 15.127C15.0292 13.242 16.5866 11.709 18.4999 11.709C20.414 11.709 21.9706 13.242 21.9706 15.127C21.9706 17.012 20.414 18.545 18.4999 18.545C16.5866 18.545 15.0292 17.012 15.0292 15.127ZM26.9623 25.07C26.3315 22.1997 24.3584 20.0814 21.7615 19.1201C23.1376 18.0289 23.9402 16.2643 23.6452 14.3323C23.3033 12.0909 21.4101 10.2973 19.1246 10.0359C15.9697 9.67441 13.2938 12.0927 13.2938 15.127C13.2938 16.742 14.0539 18.181 15.2391 19.1201C12.6413 20.0814 10.6691 22.1997 10.0374 25.07C9.80835 26.1133 10.6621 27.0901 11.7459 27.0901H25.2539C26.3385 27.0901 27.1923 26.1133 26.9623 25.07Z" fill="white"/>
</svg>
