<svg width="26" height="26" viewBox="0 0 26 26" fill="none" xmlns="http://www.w3.org/2000/svg">
<path d="M8.66665 8.66671H14.0833M8.66665 13H17.3333M8.66665 17.3334H11.9166M7.79998 4.33337H18.2C19.4134 4.33337 20.0202 4.33337 20.4836 4.56953C20.8913 4.77725 21.2228 5.1087 21.4305 5.5164C21.6666 5.97987 21.6666 6.5866 21.6666 7.80004V18.2C21.6666 19.4135 21.6666 20.0203 21.4305 20.4837C21.2228 20.8914 20.8913 21.2229 20.4836 21.4305C20.0202 21.6667 19.4134 21.6667 18.2 21.6667H7.79998C6.58654 21.6667 5.97981 21.6667 5.51633 21.4305C5.10864 21.2229 4.77719 20.8914 4.56947 20.4837C4.33331 20.0203 4.33331 19.4135 4.33331 18.2V7.80004C4.33331 6.5866 4.33331 5.97987 4.56947 5.5164C4.77719 5.1087 5.10864 4.77725 5.51633 4.56953C5.97981 4.33337 6.58654 4.33337 7.79998 4.33337Z" stroke="white" stroke-width="2" stroke-linecap="round" stroke-linejoin="round"/>
</svg>
