<svg width="17" height="19" viewBox="0 0 17 19" fill="none" xmlns="http://www.w3.org/2000/svg">
<path d="M4.41788 4.57447C4.48397 3.91207 4.71562 3.27694 5.09153 2.72754C5.46743 2.17814 5.9755 1.73213 6.56897 1.43056C7.16243 1.129 7.8222 0.981565 8.48764 1.00184C9.15301 1.02212 9.80258 1.20945 10.3766 1.54659C10.9506 1.88374 11.4305 2.35986 11.7723 2.93113C12.1141 3.5024 12.3066 4.15046 12.3322 4.81566C12.3579 5.48086 12.2158 6.14181 11.919 6.73768C11.6278 7.32236 11.1969 7.82593 10.6647 8.20392" stroke="white" stroke-width="2" stroke-linecap="round" stroke-linejoin="round"/>
<path d="M4.95959 2.96704C5.57374 3.60107 6.30912 4.1051 7.122 4.44916C7.93489 4.79321 8.80869 4.97027 9.69141 4.96979C10.5595 4.97065 11.4191 4.7997 12.2205 4.46702" stroke="white" stroke-width="2" stroke-linecap="round" stroke-linejoin="round"/>
<path d="M7.51687 7.80383C7.29271 7.80383 7.07354 7.87032 6.88709 7.9949C6.70066 8.11945 6.55537 8.29652 6.46956 8.50368C6.38376 8.71075 6.36131 8.93869 6.40505 9.15861C6.44879 9.37854 6.55676 9.58055 6.7153 9.73903C6.87384 9.89759 7.07581 10.0056 7.29574 10.0493C7.51566 10.093 7.7436 10.0706 7.95075 9.9848C8.1579 9.89903 8.3349 9.75369 8.45945 9.56725C8.58407 9.38088 8.6505 9.16164 8.6505 8.93748C8.6505 8.63684 8.53109 8.34844 8.3185 8.13585C8.1059 7.92327 7.81758 7.80383 7.51687 7.80383Z" stroke="white" stroke-width="2" stroke-linecap="round" stroke-linejoin="round"/>
<path d="M2.98236 5.85547V6.67018C2.98236 7.27149 3.22123 7.84818 3.64643 8.27337C4.07162 8.69856 4.64831 8.93746 5.24962 8.93746H6.32525" stroke="white" stroke-width="2" stroke-linecap="round" stroke-linejoin="round"/>
<path d="M15.7374 18.0065C15.7375 16.6587 15.3675 15.3368 14.6678 14.1849C13.971 13.0376 12.9739 12.1027 11.7842 11.4813" stroke="white" stroke-width="2" stroke-linecap="round" stroke-linejoin="round"/>
<path d="M1 18.0065C0.999849 16.6588 1.36961 15.3371 2.06898 14.1851C2.76485 13.0389 3.7605 12.1046 4.94831 11.483" stroke="white" stroke-width="2" stroke-linecap="round" stroke-linejoin="round"/>
</svg>
